<?xml version="1.0" standalone="no"?>
<!DOCTYPE svg PUBLIC "-//W3C//DTD SVG 20010904//EN"
 "http://www.w3.org/TR/2001/REC-SVG-20010904/DTD/svg10.dtd">
<svg version="1.0" xmlns="http://www.w3.org/2000/svg"
 width="600.000000pt" height="600.000000pt" viewBox="0 0 600.000000 600.000000"
 preserveAspectRatio="xMidYMid meet">
<metadata>
Created by potrace 1.14, written by Peter Selinger 2001-2017
</metadata>
<g transform="translate(0.000000,600.000000) scale(0.100000,-0.100000)"
fill="#000000" stroke="none">
<path d="M2956 4161 c-32 -35 -37 -78 -19 -170 14 -74 17 -147 23 -468 0 -27
40 -53 78 -53 85 0 116 81 117 300 0 193 -30 326 -87 388 -27 28 -87 30 -112
3z"/>
<path d="M3484 4085 c-17 -7 -34 -20 -38 -30 -10 -26 -7 -121 5 -152 21 -56
39 -171 48 -311 10 -156 20 -186 68 -195 119 -23 150 179 79 506 -31 141 -93
211 -162 182z"/>
<path d="M2488 3534 c-31 -16 -36 -45 -12 -68 20 -20 38 -24 151 -30 81 -4 95
-2 118 15 31 26 32 43 0 74 -22 23 -31 25 -127 25 -72 -1 -111 -5 -130 -16z"/>
<path d="M3736 3371 c-12 -14 -14 -24 -7 -43 12 -33 30 -45 81 -57 25 -6 69
-19 99 -29 50 -18 109 -19 81 -2 -7 4 -8 10 -3 13 10 7 10 48 -1 65 -14 24
-149 72 -202 72 -18 0 -38 -8 -48 -19z"/>
<path d="M3979 2716 c-3 -3 -36 -10 -74 -16 -109 -17 -167 -37 -203 -70 -17
-17 -46 -36 -62 -42 -17 -5 -30 -14 -30 -19 0 -5 -7 -9 -15 -9 -14 0 -38 -16
-76 -52 -9 -9 -32 -23 -51 -32 -31 -16 -108 -80 -108 -92 0 -2 -9 -14 -20 -26
-10 -12 -17 -25 -14 -30 3 -4 0 -8 -6 -8 -16 0 -49 -42 -50 -62 0 -10 -6 -18
-13 -18 -7 0 -20 -17 -29 -37 -10 -21 -24 -49 -31 -63 -36 -62 -57 -114 -57
-135 0 -13 -5 -25 -10 -27 -15 -5 -40 -106 -45 -181 -14 -187 -15 -266 -5
-307 27 -110 44 -157 68 -190 42 -57 154 -170 169 -170 7 0 13 -4 13 -9 0 -5
7 -12 16 -15 10 -4 13 -2 8 6 -4 6 4 3 18 -8 14 -10 24 -22 21 -26 -2 -4 3 -5
11 -2 9 3 22 -1 31 -10 9 -8 31 -18 50 -22 19 -3 33 -9 31 -13 -3 -4 5 -7 17
-8 22 -1 59 -7 109 -19 32 -7 221 12 246 25 9 6 44 21 76 36 64 27 142 97 130
116 -4 8 0 9 15 4 16 -5 23 -1 33 19 12 27 32 37 22 11 -4 -8 -1 -15 5 -15 6
0 10 3 9 8 -3 15 15 42 28 42 8 0 14 5 14 10 0 6 9 10 19 10 13 0 21 9 26 29
3 16 16 36 28 45 67 49 64 45 44 46 -10 0 -15 5 -12 10 4 6 16 8 28 5 20 -6
21 -5 5 8 -26 20 -22 30 8 23 19 -5 24 -4 18 5 -5 9 -2 10 9 6 9 -3 19 -2 22
3 4 6 -1 10 -9 10 -20 0 -20 10 0 24 13 10 20 27 23 58 1 4 8 14 17 22 8 9 17
28 18 43 2 14 10 31 19 38 9 6 19 23 22 38 4 14 13 31 21 38 8 6 14 19 14 28
0 9 4 21 8 26 14 17 32 87 42 160 16 133 5 284 -28 375 -3 8 -4 19 -3 23 2 12
-67 155 -93 192 -47 67 -68 87 -123 116 -102 55 -188 79 -278 79 -45 0 -84 -2
-86 -4z m-779 -764 c0 -13 -23 -32 -39 -32 -11 0 -10 4 4 20 19 21 35 26 35
12z m1300 -266 c0 -3 -4 -8 -10 -11 -5 -3 -10 -1 -10 4 0 6 5 11 10 11 6 0 10
-2 10 -4z m-90 -176 c0 -5 -4 -10 -10 -10 -5 0 -10 5 -10 10 0 6 5 10 10 10 6
0 10 -4 10 -10z m-163 -222 c-3 -8 -6 -5 -6 6 -1 11 2 17 5 13 3 -3 4 -12 1
-19z"/>
<path d="M1611 2203 c-5 -10 -13 -16 -18 -14 -4 3 -12 -9 -18 -25 -5 -16 -15
-33 -22 -39 -6 -5 -13 -19 -15 -30 -2 -11 -8 -24 -14 -30 -6 -5 -14 -19 -17
-30 -3 -11 -14 -51 -25 -90 -64 -224 -86 -556 -50 -765 6 -36 15 -69 20 -75 4
-5 8 -15 8 -22 0 -30 56 -127 100 -172 42 -44 95 -70 124 -63 4 2 15 -3 23
-10 10 -8 57 -12 153 -11 140 1 211 11 285 42 22 9 44 16 50 16 26 2 125 39
125 47 0 6 -7 7 -15 4 -44 -18 -50 -19 -30 -4 11 9 36 19 55 22 26 5 31 4 20
-3 -36 -25 4 -8 72 31 105 61 138 84 130 93 -4 5 -2 5 5 1 13 -7 53 15 173 97
47 32 109 75 139 95 l55 37 -40 3 c-54 3 -182 30 -224 47 -19 7 -62 23 -95 36
-68 25 -230 103 -248 120 -7 6 -49 34 -93 63 -155 99 -268 201 -410 371 -32
39 -67 79 -76 89 -10 11 -18 26 -18 33 0 7 -3 13 -7 13 -5 0 -21 26 -38 57
-40 77 -51 88 -64 66z m449 -1287 c0 -11 -19 -15 -25 -6 -3 5 1 10 9 10 9 0
16 -2 16 -4z m127 -2 c-3 -3 -12 -4 -19 -1 -8 3 -5 6 6 6 11 1 17 -2 13 -5z"/>
</g>
</svg>
